<svg width="137" height="42" viewBox="0 0 137 42" fill="none" xmlns="http://www.w3.org/2000/svg">
<path fill-rule="evenodd" clip-rule="evenodd" d="M10.916 1.8066e-06H126.09C126.502 1.8066e-06 126.92 -0.000134693 127.331 0.00196531C127.616 0.00363663 127.907 0.00804349 128.194 0.0123933C128.258 0.0133723 128.323 0.0143484 128.387 0.0152898C129.154 0.02311 129.919 0.0851597 130.676 0.200888C131.436 0.319454 132.173 0.541348 132.861 0.859238C134.238 1.50783 135.359 2.53596 136.065 3.79903C136.411 4.42838 136.65 5.10225 136.774 5.79751C136.902 6.4924 136.973 7.19505 136.987 7.89961C136.991 8.22159 136.991 8.54459 136.991 8.86656C137 9.24697 137 9.62842 137 10.0129V31.988C137 32.3757 137 32.7551 136.991 33.1365C136.991 33.4626 136.991 33.7784 136.987 34.1045C136.973 34.8091 136.902 35.5117 136.774 36.2065C136.65 36.9022 136.411 37.5764 136.065 38.206C135.714 38.8326 135.258 39.4046 134.713 39.901C134.172 40.4017 133.546 40.8196 132.861 41.1387C132.173 41.4574 131.436 41.6806 130.676 41.801C129.919 41.9158 129.154 41.9779 128.387 41.9867C128.038 41.9938 127.68 41.9979 127.331 41.9979C126.92 42 126.502 42 126.09 42H10.916C10.4962 42 10.0814 42 9.66266 41.9979C9.31216 41.9979 8.96445 41.9938 8.61058 41.9867C7.84186 41.9774 7.07499 41.9153 6.31637 41.801C5.55887 41.6815 4.82525 41.4582 4.14011 41.1387C3.45414 40.8198 2.82846 40.4019 2.28696 39.901C1.74046 39.4066 1.28492 38.8341 0.938051 38.206C0.589733 37.5769 0.348426 36.9026 0.222506 36.2065C0.0950397 35.5118 0.0264475 34.809 0.0173448 34.1045C0.0100863 33.8817 0.00726302 33.6637 0.00441744 33.444C0.00309793 33.3421 0.0017736 33.2398 0 33.1365V8.86656C0.00179462 8.76335 0.00312925 8.66003 0.00446436 8.55668C0.00729419 8.33761 0.0101261 8.11839 0.0173448 7.89966C0.0264447 7.19515 0.0950369 6.49235 0.222506 5.79756C0.348774 5.10189 0.590067 4.42797 0.938051 3.79907C1.28508 3.16892 1.74055 2.59417 2.28696 2.09693C2.83052 1.59828 3.45579 1.1807 4.14011 0.859332C4.82526 0.540663 5.55895 0.318711 6.31637 0.200982C7.07486 0.0857619 7.84181 0.0237337 8.61058 0.0154368C8.68404 0.0143709 8.75724 0.0132633 8.83026 0.0121585C9.10894 0.00794173 9.38492 0.00376584 9.66266 0.00210181C10.0814 1.80665e-06 10.4962 1.8066e-06 10.916 1.8066e-06ZM8.5326 41.0732C8.87928 41.0803 9.22026 41.0844 9.56968 41.0844L126.193 41.0865L127.436 41.0844C127.777 41.0844 128.129 41.0803 128.465 41.0732C129.183 41.0652 129.9 41.0079 130.609 40.9019C131.274 40.7985 131.919 40.6038 132.522 40.3245C133.116 40.0478 133.658 39.6852 134.127 39.2506C134.596 38.8246 134.989 38.3335 135.291 37.7953C135.595 37.2432 135.804 36.6517 135.911 36.0415C136.028 35.3978 136.093 34.7473 136.107 34.0949C136.111 33.7729 136.111 33.46 136.111 33.1185C136.12 32.7431 136.12 32.3708 136.12 31.9893V10.0096C136.12 9.63166 136.12 9.25681 136.111 8.86298C136.111 8.54503 136.111 8.22556 136.108 7.92814C136.094 7.26391 136.027 6.60149 135.908 5.94615C135.8 5.34387 135.593 4.76002 135.295 4.21442C134.684 3.12334 133.715 2.23467 132.525 1.67296C131.921 1.39516 131.275 1.20124 130.609 1.0976C129.904 0.991697 129.192 0.934617 128.477 0.926846L127.43 0.913508H9.57025L8.53542 0.926332C7.81475 0.934509 7.09577 0.992103 6.38449 1.09863C5.72478 1.20099 5.0856 1.39356 4.48839 1.66989C3.89427 1.94861 3.35159 2.31095 2.88011 2.74371C2.40811 3.17238 2.01496 3.66817 1.7159 4.21186C1.41227 4.76125 1.20209 5.3499 1.09264 5.95743C0.975005 6.60743 0.911543 7.26469 0.902797 7.92351C0.896088 8.13684 0.88595 8.86298 0.88595 8.86298V33.1236C0.88595 33.1236 0.895469 33.8611 0.90274 34.0826C0.911874 34.7425 0.975707 35.4007 1.09369 36.0518C1.20294 36.6576 1.41296 37.2446 1.71643 37.7922C2.01659 38.3362 2.41194 38.8317 2.8868 39.2588C3.35489 39.6911 3.89585 40.0515 4.48895 40.3265C5.08754 40.6037 5.72792 40.7976 6.38898 40.9019C7.09792 41.0073 7.81442 41.0646 8.5326 41.0732Z" fill="#A6A6A6"/>
<path d="M9.56972 41.0845C9.2203 41.0845 8.87932 41.0804 8.53264 41.0732C7.81446 41.0647 7.09796 41.0074 6.38902 40.9019C5.72796 40.7977 5.08758 40.6038 4.48898 40.3265C3.89588 40.0516 3.35493 39.6911 2.88684 39.2589C2.41197 38.8317 2.01663 38.3363 1.71647 37.7922C1.413 37.2447 1.20298 36.6577 1.09373 36.0518C0.975744 35.4008 0.91191 34.7425 0.902776 34.0827C0.895505 33.8612 0.885986 33.1237 0.885986 33.1237V8.86304C0.885986 8.86304 0.896125 8.13691 0.902834 7.92358C0.911579 7.26476 0.975042 6.6075 1.09267 5.9575C1.20213 5.34996 1.41231 4.76131 1.71594 4.21193C2.015 3.66824 2.40815 3.17245 2.88015 2.74377C3.35162 2.31102 3.89431 1.94867 4.48842 1.66995C5.08564 1.39362 5.72481 1.20105 6.38453 1.0987C7.0958 0.992169 7.81479 0.934575 8.53546 0.926397L9.57028 0.913574H127.43L128.477 0.926912C129.192 0.934683 129.904 0.991763 130.609 1.09767C131.275 1.20131 131.921 1.39522 132.525 1.67303C133.715 2.23474 134.684 3.12341 135.295 4.21449C135.593 4.76009 135.8 5.34393 135.908 5.94622C136.028 6.60155 136.094 7.26398 136.108 7.9282C136.111 8.22562 136.111 8.5451 136.111 8.86304C136.12 9.25688 136.12 9.63173 136.12 10.0097V31.9894C136.12 32.3709 136.12 32.7432 136.111 33.1186C136.111 33.4601 136.111 33.7729 136.107 34.0949C136.093 34.7473 136.028 35.3979 135.911 36.0415C135.804 36.6518 135.595 37.2433 135.291 37.7954C134.989 38.3335 134.596 38.8247 134.127 39.2507C133.658 39.6852 133.116 40.0478 132.522 40.3245C131.919 40.6039 131.274 40.7985 130.609 40.9019C129.9 41.008 129.183 41.0652 128.465 41.0732C128.129 41.0804 127.777 41.0845 127.436 41.0845L126.193 41.0866L9.56972 41.0845Z" fill="black"/>
<path d="M33.2833 21.3157C33.2942 20.4393 33.5192 19.58 33.9373 18.8177C34.3554 18.0555 34.9531 17.4151 35.6747 16.956C35.2163 16.2786 34.6115 15.7211 33.9084 15.3278C33.2053 14.9346 32.4233 14.7163 31.6244 14.6905C29.9203 14.5054 28.2683 15.7455 27.3999 15.7455C26.5147 15.7455 25.1777 14.7088 23.7379 14.7395C22.8066 14.7706 21.899 15.0508 21.1036 15.5528C20.3081 16.0547 19.6518 16.7613 19.1987 17.6037C17.2361 21.1196 18.7 26.2867 20.5801 29.1286C21.5207 30.5202 22.62 32.0747 24.0585 32.0196C25.4661 31.9592 25.9918 31.0909 27.6909 31.0909C29.3743 31.0909 29.8675 32.0196 31.3351 31.9845C32.8456 31.9592 33.7972 30.5867 34.7048 29.182C35.3807 28.1904 35.9007 27.0945 36.2457 25.9348C35.3682 25.5508 34.6194 24.908 34.0926 24.0866C33.5657 23.2652 33.2843 22.3015 33.2833 21.3157V21.3157Z" fill="white"/>
<path d="M30.5112 12.8214C31.3348 11.7985 31.7405 10.4837 31.6422 9.15625C30.384 9.29298 29.2218 9.91517 28.3871 10.8988C27.979 11.3794 27.6665 11.9384 27.4673 12.5441C27.2682 13.1497 27.1863 13.7899 27.2265 14.4283C27.8558 14.435 28.4784 14.2939 29.0474 14.0155C29.6163 13.7372 30.1169 13.3289 30.5112 12.8214Z" fill="white"/>
<path d="M51.0764 28.4967H46.2729L45.1193 32.021H43.0847L47.6345 18.9821H49.7484L54.2982 32.021H52.2289L51.0764 28.4967ZM46.7704 26.8704H50.5779L48.7009 21.1508H48.6484L46.7704 26.8704Z" fill="white"/>
<path d="M64.1243 27.2683C64.1243 30.2224 62.5961 32.1204 60.29 32.1204C59.7058 32.152 59.1248 32.0128 58.6136 31.7187C58.1023 31.4245 57.6814 30.9873 57.3992 30.4572H57.3555V35.1658H55.4696V22.5146H57.2951V24.0957H57.3298C57.625 23.5681 58.053 23.1332 58.5682 22.8373C59.0833 22.5413 59.6664 22.3954 60.2553 22.4151C62.5872 22.4151 64.1243 24.3223 64.1243 27.2683ZM62.1858 27.2683C62.1858 25.3436 61.2245 24.0783 59.7578 24.0783C58.3168 24.0783 57.3476 25.3703 57.3476 27.2683C57.3476 29.1837 58.3168 30.4665 59.7578 30.4665C61.2245 30.4665 62.1858 29.2104 62.1858 27.2683Z" fill="white"/>
<path d="M74.2368 27.2683C74.2368 30.2224 72.7086 32.1204 70.4025 32.1204C69.8183 32.152 69.2373 32.0128 68.726 31.7187C68.2148 31.4245 67.7939 30.9873 67.5116 30.4572H67.468V35.1658H65.5821V22.5146H67.4075V24.0957H67.4422C67.7375 23.5681 68.1655 23.1332 68.6806 22.8373C69.1958 22.5414 69.7788 22.3954 70.3677 22.4151C72.6997 22.4151 74.2368 24.3223 74.2368 27.2683ZM72.2983 27.2683C72.2983 25.3436 71.337 24.0783 69.8703 24.0783C68.4293 24.0783 67.4601 25.3703 67.4601 27.2683C67.4601 29.1837 68.4293 30.4665 69.8703 30.4665C71.337 30.4665 72.2983 29.2104 72.2983 27.2683Z" fill="white"/>
<path d="M80.9203 28.388C81.06 29.681 82.274 30.53 83.933 30.53C85.5226 30.53 86.6663 29.681 86.6663 28.5151C86.6663 27.503 85.9765 26.897 84.3433 26.4817L82.7101 26.0747C80.396 25.4963 79.3217 24.3766 79.3217 22.5596C79.3217 20.3099 81.2166 18.7646 83.9072 18.7646C86.5701 18.7646 88.3956 20.3099 88.457 22.5596H86.5533C86.4393 21.2584 85.3997 20.473 83.8804 20.473C82.3612 20.473 81.3216 21.2676 81.3216 22.4243C81.3216 23.3461 81.9856 23.8885 83.6099 24.3038L84.9983 24.6565C87.5839 25.2892 88.6582 26.3638 88.6582 28.271C88.6582 30.7104 86.7802 32.2382 83.7932 32.2382C80.9985 32.2382 79.1116 30.7463 78.9897 28.3879L80.9203 28.388Z" fill="white"/>
<path d="M92.7284 20.2648V22.5146H94.4756V24.0598H92.7284V29.3006C92.7284 30.1147 93.0782 30.4941 93.8463 30.4941C94.0537 30.4904 94.2608 30.4753 94.4666 30.449V31.985C94.1213 32.0518 93.7704 32.082 93.4191 32.0753C91.559 32.0753 90.8335 31.3524 90.8335 29.5087V24.0598H89.4976V22.5146H90.8335V20.2648H92.7284Z" fill="white"/>
<path d="M95.4875 27.2683C95.4875 24.2772 97.19 22.3977 99.845 22.3977C102.509 22.3977 104.204 24.2772 104.204 27.2683C104.204 30.2675 102.518 32.1389 99.845 32.1389C97.1731 32.1389 95.4875 30.2675 95.4875 27.2683ZM102.282 27.2683C102.282 25.2165 101.373 24.0055 99.845 24.0055C98.3168 24.0055 97.4091 25.2257 97.4091 27.2683C97.4091 29.3283 98.3168 30.53 99.845 30.53C101.373 30.53 102.282 29.3283 102.282 27.2683Z" fill="white"/>
<path d="M105.758 22.5146H107.557V24.1326H107.601C107.723 23.6273 108.009 23.1807 108.411 22.8679C108.814 22.5551 109.308 22.3952 109.811 22.4151C110.028 22.4143 110.245 22.4387 110.457 22.4879V24.3131C110.183 24.2263 109.896 24.1865 109.61 24.1952C109.336 24.1837 109.062 24.2336 108.809 24.3417C108.555 24.4497 108.327 24.6132 108.141 24.821C107.954 25.0288 107.813 25.2759 107.727 25.5454C107.642 25.8149 107.613 26.1004 107.644 26.3823V32.0209H105.758L105.758 22.5146Z" fill="white"/>
<path d="M119.152 29.2288C118.899 30.9545 117.274 32.1389 115.196 32.1389C112.523 32.1389 110.864 30.286 110.864 27.3134C110.864 24.3315 112.532 22.3977 115.117 22.3977C117.659 22.3977 119.257 24.2044 119.257 27.0868V27.7553H112.768V27.8732C112.738 28.2231 112.78 28.5756 112.892 28.9072C113.004 29.2388 113.183 29.542 113.417 29.7967C113.65 30.0514 113.934 30.2517 114.248 30.3843C114.562 30.5169 114.9 30.5788 115.24 30.5659C115.685 30.6091 116.133 30.5023 116.515 30.2614C116.897 30.0205 117.194 29.6583 117.361 29.2288L119.152 29.2288ZM112.777 26.3916H117.37C117.387 26.077 117.341 25.7622 117.235 25.4669C117.129 25.1716 116.965 24.9023 116.753 24.6757C116.541 24.4492 116.287 24.2703 116.005 24.1504C115.724 24.0305 115.421 23.972 115.117 23.9788C114.81 23.9769 114.505 24.038 114.221 24.1584C113.937 24.2789 113.678 24.4564 113.461 24.6808C113.243 24.9051 113.071 25.1717 112.954 25.4654C112.836 25.759 112.776 26.0738 112.777 26.3916Z" fill="white"/>
<path d="M46.534 9.16759C46.9294 9.13823 47.3261 9.20003 47.6956 9.34854C48.0652 9.49704 48.3982 9.72855 48.6708 10.0264C48.9433 10.3242 49.1486 10.6808 49.2718 11.0707C49.395 11.4605 49.4331 11.8738 49.3832 12.2807C49.3832 14.2822 48.3377 15.4328 46.534 15.4328H44.3468V9.16759H46.534ZM45.2873 14.5467H46.4289C46.7115 14.5642 46.9942 14.5163 47.2566 14.4064C47.519 14.2966 47.7544 14.1276 47.9456 13.9117C48.1369 13.6959 48.2793 13.4386 48.3624 13.1587C48.4454 12.8787 48.4671 12.5832 48.4259 12.2934C48.4641 12.0049 48.4402 11.7111 48.3559 11.4332C48.2715 11.1553 48.1288 10.9002 47.938 10.686C47.7471 10.4719 47.5129 10.3041 47.252 10.1947C46.9911 10.0852 46.71 10.0368 46.4289 10.053H45.2873V14.5467Z" fill="white"/>
<path d="M50.4456 13.0666C50.4169 12.7559 50.4512 12.4424 50.5465 12.1462C50.6417 11.85 50.7957 11.5777 50.9986 11.3467C51.2015 11.1158 51.4488 10.9312 51.7247 10.8049C52.0006 10.6786 52.2989 10.6134 52.6006 10.6134C52.9023 10.6134 53.2006 10.6786 53.4765 10.8049C53.7524 10.9312 53.9997 11.1158 54.2026 11.3467C54.4055 11.5777 54.5595 11.85 54.6547 12.1462C54.75 12.4424 54.7843 12.7559 54.7556 13.0666C54.7849 13.3776 54.7509 13.6916 54.6559 13.9882C54.561 14.2849 54.407 14.5577 54.2041 14.7891C54.0011 15.0205 53.7536 15.2055 53.4775 15.332C53.2013 15.4586 52.9026 15.524 52.6006 15.524C52.2986 15.524 51.9999 15.4586 51.7237 15.332C51.4476 15.2055 51.2 15.0205 50.9971 14.7891C50.7941 14.5577 50.6402 14.2849 50.5452 13.9882C50.4503 13.6916 50.4163 13.3776 50.4456 13.0666ZM53.828 13.0666C53.828 12.0417 53.383 11.4424 52.6021 11.4424C51.8182 11.4424 51.3772 12.0417 51.3772 13.0666C51.3772 14.0997 51.8182 14.6944 52.6021 14.6944C53.383 14.6944 53.828 14.0956 53.828 13.0666Z" fill="white"/>
<path d="M60.4847 15.4327H59.5492L58.6048 11.9504H58.5334L57.5929 15.4327H56.6663L55.4067 10.7046H56.3214L57.14 14.3124H57.2074L58.1469 10.7046H59.0121L59.9516 14.3124H60.0229L60.8375 10.7046H61.7394L60.4847 15.4327Z" fill="white"/>
<path d="M62.7988 10.7046H63.6669V11.4557H63.7343C63.8486 11.1859 64.0415 10.9598 64.2859 10.8088C64.5303 10.6578 64.8142 10.5895 65.098 10.6133C65.3203 10.596 65.5436 10.6307 65.7512 10.7148C65.9588 10.7989 66.1455 10.9303 66.2974 11.0992C66.4493 11.2681 66.5625 11.4701 66.6287 11.6904C66.6949 11.9108 66.7123 12.1437 66.6797 12.3719V15.4326H65.7778V12.6062C65.7778 11.8464 65.4587 11.4685 64.7917 11.4685C64.6408 11.4612 64.4901 11.4878 64.35 11.5464C64.2099 11.6051 64.0837 11.6943 63.9801 11.8081C63.8764 11.9219 63.7978 12.0576 63.7496 12.2058C63.7013 12.354 63.6846 12.5112 63.7006 12.6667V15.4327H62.7988L62.7988 10.7046Z" fill="white"/>
<path d="M68.1167 8.85889H69.0185V15.4327H68.1167V8.85889Z" fill="white"/>
<path d="M70.2721 13.0666C70.2434 12.7559 70.2778 12.4423 70.3731 12.1462C70.4683 11.85 70.6223 11.5777 70.8253 11.3467C71.0282 11.1157 71.2755 10.9311 71.5514 10.8048C71.8273 10.6785 72.1257 10.6133 72.4274 10.6133C72.7291 10.6133 73.0274 10.6785 73.3033 10.8048C73.5792 10.9311 73.8266 11.1157 74.0295 11.3467C74.2324 11.5777 74.3864 11.85 74.4817 12.1462C74.577 12.4423 74.6113 12.7559 74.5826 13.0666C74.6119 13.3776 74.5779 13.6916 74.4829 13.9882C74.3879 14.2849 74.2339 14.5577 74.031 14.7891C73.828 15.0205 73.5805 15.2055 73.3043 15.332C73.0281 15.4586 72.7294 15.524 72.4274 15.524C72.1253 15.524 71.8266 15.4586 71.5505 15.332C71.2743 15.2055 71.0268 15.0205 70.8238 14.7891C70.6208 14.5577 70.4669 14.2849 70.3719 13.9882C70.2769 13.6916 70.2429 13.3776 70.2721 13.0666ZM73.6545 13.0666C73.6545 12.0417 73.2095 11.4424 72.4286 11.4424C71.6447 11.4424 71.2037 12.0417 71.2037 13.0666C71.2037 14.0997 71.6447 14.6944 72.4286 14.6944C73.2096 14.6944 73.6545 14.0956 73.6545 13.0666Z" fill="white"/>
<path d="M75.532 14.0956C75.532 13.2445 76.1445 12.7539 77.2317 12.6841L78.4695 12.6103V12.2022C78.4695 11.7028 78.1503 11.4208 77.5339 11.4208C77.0305 11.4208 76.6816 11.6121 76.5815 11.9464H75.7084C75.8006 11.1342 76.5389 10.6134 77.5755 10.6134C78.7212 10.6134 79.3673 11.2035 79.3673 12.2022V15.4327H78.4992V14.7682H78.4278C78.283 15.0066 78.0796 15.2009 77.8385 15.3313C77.5973 15.4617 77.3271 15.5236 77.0553 15.5106C76.8634 15.5312 76.6695 15.5101 76.4861 15.4484C76.3027 15.3868 76.1337 15.2861 75.9902 15.1527C75.8467 15.0194 75.7318 14.8565 75.6529 14.6744C75.574 14.4923 75.5328 14.2951 75.532 14.0956ZM78.4695 13.6916V13.2963L77.3536 13.3701C76.7242 13.4137 76.4388 13.6352 76.4388 14.052C76.4388 14.4775 76.7956 14.7252 77.2862 14.7252C77.4299 14.7402 77.5751 14.7252 77.7132 14.681C77.8512 14.6368 77.9792 14.5643 78.0896 14.4679C78.2 14.3715 78.2905 14.253 78.3558 14.1197C78.421 13.9863 78.4597 13.8407 78.4695 13.6916Z" fill="white"/>
<path d="M80.5526 13.0666C80.5526 11.5726 81.2949 10.6262 82.4494 10.6262C82.735 10.6125 83.0184 10.6833 83.2666 10.8302C83.5147 10.9771 83.7173 11.194 83.8507 11.4557H83.9181V8.85889H84.82V15.4327H83.9558V14.6857H83.8844C83.7407 14.9455 83.5311 15.1598 83.2781 15.3052C83.0252 15.4506 82.7386 15.5216 82.4494 15.5106C81.287 15.5106 80.5526 14.5642 80.5526 13.0666ZM81.4842 13.0666C81.4842 14.0694 81.9411 14.6729 82.7051 14.6729C83.4652 14.6729 83.935 14.0607 83.935 13.0707C83.935 12.0853 83.4603 11.4644 82.7051 11.4644C81.946 11.4644 81.4842 12.072 81.4842 13.0666Z" fill="white"/>
<path d="M88.5512 13.0666C88.5225 12.7559 88.5568 12.4424 88.6521 12.1462C88.7473 11.85 88.9013 11.5777 89.1042 11.3467C89.3071 11.1158 89.5544 10.9312 89.8303 10.8049C90.1062 10.6786 90.4045 10.6134 90.7062 10.6134C91.0079 10.6134 91.3062 10.6786 91.5821 10.8049C91.858 10.9312 92.1053 11.1158 92.3082 11.3467C92.5111 11.5777 92.6651 11.85 92.7603 12.1462C92.8556 12.4424 92.8899 12.7559 92.8612 13.0666C92.8905 13.3776 92.8565 13.6916 92.7615 13.9882C92.6666 14.2849 92.5126 14.5577 92.3097 14.7891C92.1067 15.0205 91.8592 15.2055 91.5831 15.332C91.3069 15.4586 91.0082 15.524 90.7062 15.524C90.4042 15.524 90.1055 15.4586 89.8293 15.332C89.5532 15.2055 89.3057 15.0205 89.1027 14.7891C88.8997 14.5577 88.7458 14.2849 88.6508 13.9882C88.5559 13.6916 88.5219 13.3776 88.5512 13.0666ZM91.9336 13.0666C91.9336 12.0417 91.4886 11.4424 90.7077 11.4424C89.9238 11.4424 89.4828 12.0417 89.4828 13.0666C89.4828 14.0997 89.9238 14.6944 90.7077 14.6944C91.4886 14.6944 91.9336 14.0956 91.9336 13.0666Z" fill="white"/>
<path d="M94.0712 10.7046H94.9394V11.4557H95.0068C95.1211 11.1859 95.3139 10.9598 95.5584 10.8088C95.8028 10.6578 96.0867 10.5895 96.3704 10.6133C96.5928 10.596 96.816 10.6307 97.0237 10.7148C97.2313 10.7989 97.418 10.9303 97.5699 11.0992C97.7218 11.2681 97.835 11.4701 97.9012 11.6904C97.9673 11.9108 97.9847 12.1437 97.9521 12.3719V15.4326H97.0503V12.6062C97.0503 11.8464 96.7312 11.4685 96.0642 11.4685C95.9132 11.4612 95.7625 11.4878 95.6224 11.5464C95.4823 11.6051 95.3561 11.6943 95.2525 11.8081C95.1489 11.9219 95.0702 12.0576 95.022 12.2058C94.9738 12.354 94.9571 12.5112 94.9731 12.6667V15.4327H94.0712V10.7046Z" fill="white"/>
<path d="M103.048 9.52745V10.7261H104.038V11.5121H103.048V13.9433C103.048 14.4386 103.245 14.6554 103.694 14.6554C103.809 14.6551 103.924 14.6479 104.038 14.6339V15.4111C103.876 15.4411 103.712 15.4571 103.547 15.4588C102.545 15.4588 102.145 15.0938 102.145 14.1822V11.5121H101.42V10.7261H102.145V9.52745H103.048Z" fill="white"/>
<path d="M105.27 8.85889H106.164V11.4644H106.235C106.355 11.1921 106.553 10.9647 106.802 10.8131C107.052 10.6616 107.34 10.5932 107.628 10.6174C107.85 10.605 108.071 10.6432 108.276 10.7293C108.481 10.8155 108.666 10.9474 108.816 11.1158C108.966 11.2841 109.079 11.4848 109.146 11.7033C109.212 11.9218 109.232 12.1529 109.202 12.3801V15.4327H108.3V12.6103C108.3 11.8551 107.96 11.4726 107.322 11.4726C107.167 11.4594 107.011 11.4815 106.866 11.5372C106.72 11.5929 106.587 11.6809 106.478 11.7951C106.368 11.9093 106.284 12.0468 106.231 12.1982C106.178 12.3495 106.158 12.511 106.172 12.6713V15.4327H105.27L105.27 8.85889Z" fill="white"/>
<path d="M114.461 14.1561C114.338 14.5882 114.073 14.962 113.711 15.212C113.349 15.4621 112.913 15.5725 112.481 15.5239C112.18 15.5322 111.88 15.4725 111.604 15.3491C111.327 15.2257 111.08 15.0415 110.879 14.8093C110.678 14.5771 110.529 14.3025 110.441 14.0045C110.353 13.7064 110.329 13.3922 110.37 13.0835C110.33 12.7739 110.354 12.459 110.442 12.16C110.53 11.8611 110.679 11.5852 110.878 11.351C111.078 11.1168 111.324 10.9297 111.6 10.8024C111.876 10.6752 112.175 10.6107 112.477 10.6133C113.748 10.6133 114.515 11.5121 114.515 12.9968V13.3224H111.288V13.3747C111.274 13.5482 111.295 13.7229 111.35 13.8875C111.405 14.0521 111.493 14.203 111.607 14.3305C111.722 14.458 111.861 14.5594 112.016 14.628C112.17 14.6967 112.337 14.7312 112.505 14.7292C112.721 14.756 112.94 14.7158 113.133 14.6138C113.327 14.5117 113.487 14.3524 113.593 14.156L114.461 14.1561ZM111.288 12.6323H113.596C113.608 12.4737 113.587 12.3143 113.535 12.1644C113.484 12.0146 113.402 11.8775 113.296 11.7622C113.19 11.6468 113.062 11.5557 112.92 11.4946C112.778 11.4335 112.625 11.4039 112.472 11.4075C112.316 11.4055 112.161 11.4358 112.016 11.4966C111.872 11.5575 111.741 11.6476 111.63 11.7618C111.52 11.8759 111.433 12.0118 111.374 12.1613C111.316 12.3108 111.286 12.471 111.288 12.6323Z" fill="white"/>
</svg>
