<svg width="60" height="60" viewBox="0 0 60 60" fill="none" xmlns="http://www.w3.org/2000/svg">
<path d="M30 60C46.5685 60 60 46.5685 60 30C60 13.4315 46.5685 0 30 0C13.4315 0 0 13.4315 0 30C0 46.5685 13.4315 60 30 60Z" fill="white" fill-opacity="0.1"/>
<path d="M59.5 30C59.5 46.2924 46.2924 59.5 30 59.5C13.7076 59.5 0.5 46.2924 0.5 30C0.5 13.7076 13.7076 0.5 30 0.5C46.2924 0.5 59.5 13.7076 59.5 30Z" stroke="white" stroke-opacity="0.3"/>
<g clip-path="url(#clip0_1349_4163)">
<path d="M36.2711 30.8111C36.5867 30.8111 36.8424 30.5553 36.8424 30.2398V26.1141C36.8424 25.876 36.6947 25.6628 36.4717 25.5792L29.7005 23.0401C29.571 22.9915 29.4287 22.9915 29.2992 23.0401L22.5279 25.5792C22.3049 25.6629 22.1572 25.876 22.1572 26.1141V27.9483C22.1572 28.2638 22.4129 28.5196 22.7285 28.5196C23.0441 28.5196 23.2998 28.2638 23.2998 27.9483V26.9385L28.9285 29.0493V36.6009L23.2998 34.4901V30.6208C23.2998 30.3053 23.0441 30.0495 22.7285 30.0495C22.4129 30.0495 22.1572 30.3053 22.1572 30.6208V34.8861C22.1572 35.1242 22.3049 35.3374 22.5279 35.421L29.2992 37.9601C29.2993 37.9597 29.2994 37.9591 29.2995 37.9585C29.3638 37.9827 29.4315 37.9965 29.4999 37.9965C29.5675 37.9965 29.6354 37.9845 29.7005 37.9601L36.4717 35.4209C36.6947 35.3372 36.8424 35.1241 36.8424 34.886V32.9026C36.8424 32.5871 36.5867 32.3313 36.2711 32.3313C35.9555 32.3313 35.6998 32.5871 35.6998 32.9026V34.4901L30.0711 36.6009V29.0493L35.6998 26.9385V30.2398C35.6998 30.5554 35.9555 30.8111 36.2711 30.8111ZM29.4998 28.0433L24.3556 26.1142L29.4998 24.1851L34.644 26.1142L29.4998 28.0433Z" fill="white"/>
<path d="M28.9285 16.7022V20.8048C28.9285 21.1203 29.1842 21.3761 29.4998 21.3761C29.8154 21.3761 30.0711 21.1203 30.0711 20.8048V16.7022C31.3862 16.4365 32.3795 15.2719 32.3795 13.8797C32.3795 12.2918 31.0877 11 29.4998 11C27.9119 11 26.6201 12.2918 26.6201 13.8797C26.6201 15.2719 27.6134 16.4365 28.9285 16.7022ZM29.4998 12.1426C30.4576 12.1426 31.2369 12.9218 31.2369 13.8797C31.2369 14.8375 30.4576 15.6168 29.4998 15.6168C28.542 15.6168 27.7627 14.8375 27.7627 13.8797C27.7627 12.9218 28.542 12.1426 29.4998 12.1426Z" fill="white"/>
<path d="M40.4905 37.5336C39.6052 37.5336 38.7869 37.8259 38.127 38.319L36.7595 36.9515C36.5363 36.7284 36.1746 36.7284 35.9515 36.9515C35.7284 37.1746 35.7284 37.5364 35.9515 37.7594L37.3191 39.1269C36.826 39.7869 36.5337 40.6052 36.5337 41.4904C36.5337 43.6723 38.3088 45.4473 40.4906 45.4473C42.6724 45.4473 44.4475 43.6723 44.4475 41.4904C44.4475 39.3086 42.6724 37.5336 40.4905 37.5336ZM40.4905 44.3048C38.9387 44.3048 37.6762 43.0423 37.6762 41.4905C37.6762 39.9387 38.9387 38.6762 40.4905 38.6762C42.0424 38.6762 43.3048 39.9387 43.3048 41.4905C43.3048 43.0423 42.0424 44.3048 40.4905 44.3048Z" fill="white"/>
<path d="M18.5096 23.4662C19.3949 23.4662 20.2131 23.1739 20.8731 22.6808L22.2406 24.0483C22.3522 24.1598 22.4985 24.2157 22.6446 24.2157C22.7908 24.2157 22.937 24.1599 23.0486 24.0483C23.2717 23.8252 23.2717 23.4635 23.0486 23.2404L21.6811 21.8729C22.1743 21.213 22.4665 20.3947 22.4665 19.5094C22.4665 17.3275 20.6914 15.5525 18.5096 15.5525C16.3278 15.5525 14.5527 17.3275 14.5527 19.5094C14.5527 21.6913 16.3277 23.4662 18.5096 23.4662ZM18.5096 16.695C20.0614 16.695 21.3239 17.9575 21.3239 19.5093C21.3239 21.0611 20.0614 22.3236 18.5096 22.3236C16.9577 22.3236 15.6952 21.0611 15.6952 19.5093C15.6952 17.9575 16.9577 16.695 18.5096 16.695Z" fill="white"/>
<path d="M30.0711 44.2977V40.1951C30.0711 39.8796 29.8154 39.6238 29.4998 39.6238C29.1842 39.6238 28.9285 39.8796 28.9285 40.1951V44.2977C27.6134 44.5634 26.6201 45.728 26.6201 47.1202C26.6201 48.7081 27.9119 49.9999 29.4998 49.9999C31.0877 49.9999 32.3795 48.7081 32.3795 47.1202C32.3795 45.728 31.3862 44.5634 30.0711 44.2977ZM29.4998 48.8573C28.542 48.8573 27.7627 48.0781 27.7627 47.1202C27.7627 46.1624 28.542 45.3831 29.4998 45.3831C30.4576 45.3831 31.2369 46.1624 31.2369 47.1202C31.2369 48.0781 30.4576 48.8573 29.4998 48.8573Z" fill="white"/>
<path d="M46.1205 27.6204C44.7282 27.6204 43.5637 28.6136 43.2979 29.9287H39.1953C38.8797 29.9287 38.624 30.1845 38.624 30.5C38.624 30.8155 38.8797 31.0713 39.1953 31.0713H43.2979C43.5637 32.3864 44.7282 33.3797 46.1205 33.3797C47.7084 33.3797 49.0002 32.0879 49.0002 30.5C49.0002 28.9122 47.7084 27.6204 46.1205 27.6204ZM46.1205 32.2371C45.1627 32.2371 44.3834 31.4579 44.3834 30.5C44.3834 29.5422 45.1626 28.7629 46.1205 28.7629C47.0783 28.7629 47.8576 29.5422 47.8576 30.5C47.8576 31.4579 47.0783 32.2371 46.1205 32.2371Z" fill="white"/>
<path d="M15.7022 31.0713H19.8048C20.1204 31.0713 20.3761 30.8155 20.3761 30.5C20.3761 30.1845 20.1204 29.9287 19.8048 29.9287H15.7022C15.4365 28.6136 14.2719 27.6204 12.8797 27.6204C11.2918 27.6204 10 28.9122 10 30.5C10 32.0879 11.2918 33.3797 12.8797 33.3797C14.2719 33.3797 15.4365 32.3864 15.7022 31.0713ZM12.8797 32.2371C11.9218 32.2371 11.1426 31.4579 11.1426 30.5C11.1426 29.5422 11.9218 28.7629 12.8797 28.7629C13.8375 28.7629 14.6167 29.5422 14.6167 30.5C14.6167 31.4579 13.8375 32.2371 12.8797 32.2371Z" fill="white"/>
<path d="M36.3555 24.2157C36.5017 24.2157 36.6479 24.16 36.7595 24.0484L38.1271 22.6809C38.787 23.174 39.6053 23.4663 40.4906 23.4663C42.6725 23.4663 44.4475 21.6913 44.4475 19.5094C44.4475 17.3275 42.6724 15.5525 40.4906 15.5525C38.3088 15.5525 36.5337 17.3275 36.5337 19.5094C36.5337 20.3947 36.826 21.213 37.3191 21.8729L35.9515 23.2404C35.7284 23.4635 35.7284 23.8253 35.9515 24.0483C36.0631 24.16 36.2094 24.2157 36.3555 24.2157ZM40.4906 16.6951C42.0424 16.6951 43.3049 17.9576 43.3049 19.5094C43.3049 21.0612 42.0424 22.3237 40.4906 22.3237C38.9387 22.3237 37.6763 21.0612 37.6763 19.5094C37.6763 17.9576 38.9387 16.6951 40.4906 16.6951Z" fill="white"/>
<path d="M22.2402 36.9515L20.8727 38.319C20.2127 37.8259 19.3944 37.5336 18.5091 37.5336C16.3273 37.5336 14.5522 39.3086 14.5522 41.4905C14.5522 43.6724 16.3274 45.4474 18.5091 45.4474C20.6909 45.4474 22.466 43.6724 22.466 41.4905C22.466 40.6052 22.1738 39.7869 21.6806 39.127L23.0482 37.7595C23.2713 37.5363 23.2713 37.1746 23.0482 36.9516C22.825 36.7284 22.4634 36.7284 22.2402 36.9515ZM18.5091 44.3048C16.9573 44.3048 15.6948 43.0423 15.6948 41.4905C15.6948 39.9387 16.9573 38.6762 18.5091 38.6762C20.061 38.6762 21.3235 39.9387 21.3235 41.4905C21.3235 43.0423 20.061 44.3048 18.5091 44.3048Z" fill="white"/>
</g>
<defs>
<clipPath id="clip0_1349_4163">
<rect width="39" height="39" fill="white" transform="translate(10 11)"/>
</clipPath>
</defs>
</svg>
