<svg width="60" height="60" viewBox="0 0 60 60" fill="none" xmlns="http://www.w3.org/2000/svg">
<path d="M30 60C46.5685 60 60 46.5685 60 30C60 13.4315 46.5685 0 30 0C13.4315 0 0 13.4315 0 30C0 46.5685 13.4315 60 30 60Z" fill="white" fill-opacity="0.1"/>
<path d="M59.5 30C59.5 46.2924 46.2924 59.5 30 59.5C13.7076 59.5 0.5 46.2924 0.5 30C0.5 13.7076 13.7076 0.5 30 0.5C46.2924 0.5 59.5 13.7076 59.5 30Z" stroke="white" stroke-opacity="0.3"/>
<g clip-path="url(#clip0_1349_4164)">
<path d="M46.0888 38.0513C45.4359 37.0918 44.3284 36.8576 43.1253 37.4237L42.4876 37.7045C43.493 35.5614 43.6178 33.1724 43.1173 30.9159C42.5424 28.3242 41.154 25.8135 38.9905 23.4535C38.7993 23.2448 38.475 23.2307 38.2663 23.4221C38.0576 23.6133 38.0435 23.9376 38.2348 24.1463C40.2751 26.3719 41.581 28.7242 42.1164 31.1379C42.6803 33.6804 42.3522 36.3024 40.9132 38.3976L34.5324 41.2071L34.5377 40.4865C34.5378 40.4683 34.537 40.4501 34.5351 40.432C34.3878 38.9509 33.2557 37.7708 31.7819 37.5623C31.7775 37.5616 31.7732 37.5611 31.7687 37.5606L26.0976 36.9076C23.9168 36.5972 23.3552 35.2904 20.4018 34.5452C20.1977 32.8136 20.4697 30.97 21.2153 29.1218C22.3381 26.3384 24.5346 23.6341 27.5798 21.2802C28.7148 22.085 33.7783 22.1851 34.9115 21.147C35.492 21.5879 36.046 22.0422 36.5621 22.502C36.6598 22.5891 36.7816 22.6319 36.903 22.6319C37.0441 22.6319 37.1846 22.574 37.2859 22.4603C37.4742 22.249 37.4555 21.9249 37.2441 21.7366C36.6784 21.2326 36.0698 20.7353 35.4315 20.2546C35.5811 19.6204 35.3718 18.8781 34.8195 18.4362C36.4245 16.0018 36.8913 14.4084 36.2465 13.5736C35.8036 13.0001 35.2526 13.2693 35.0173 13.3843C34.6185 13.5789 34.401 13.5892 34.0341 13.3491C33.334 12.891 32.5982 12.8763 31.8756 13.3491C31.504 13.5923 31.2113 13.5923 30.8398 13.3491C30.1397 12.891 29.4042 12.8763 28.6814 13.3491C28.3102 13.5921 28.0919 13.577 27.6994 13.3819C27.4644 13.2651 26.914 12.9915 26.4683 13.5651C25.838 14.3764 26.2597 15.9195 27.7564 18.2711C27.6648 18.3207 27.5774 18.3789 27.4958 18.4453C26.9006 17.8167 25.9253 17.161 24.5149 17.3185C23.3451 17.4494 22.4824 17.0629 21.9647 16.7156C21.7295 16.5581 21.4111 16.6209 21.2535 16.8559C21.0958 17.091 21.1587 17.4095 21.3937 17.5671C22.0538 18.0096 23.1506 18.5022 24.6286 18.3374C25.7183 18.2151 26.4577 18.772 26.9179 19.3387C26.9116 19.3606 26.9058 19.3826 26.9004 19.4046C26.5078 19.4107 25.9211 19.4474 25.275 19.5818C23.721 19.9051 22.5675 20.6435 21.9391 21.7176C21.7962 21.9619 21.8783 22.276 22.1227 22.419C22.367 22.5619 22.681 22.4797 22.824 22.2354C23.7587 20.6379 26.0403 20.4425 26.9466 20.4303C26.9505 20.4415 26.9551 20.4527 26.9592 20.4639C23.7252 22.9585 21.4737 25.7406 20.2646 28.7381C19.5003 30.6328 19.195 32.531 19.35 34.335C18.8584 34.2622 18.3612 34.2232 17.8615 34.2198V33.9098C17.8615 33.0895 17.1942 32.4223 16.374 32.4223H14.0208C13.2005 32.4223 12.5332 33.0896 12.5332 33.9098V45.8483C12.5332 46.6686 13.2005 47.3359 14.0208 47.3359H16.3739C17.1942 47.3359 17.8615 46.6686 17.8615 45.8483V45.7023L22.9946 47.6129C23.6845 47.8696 24.4074 47.9998 25.1435 47.9998H32.7919C33.9613 47.9998 35.1014 47.6689 36.0891 47.0431C46.2923 40.5749 45.6727 40.9774 45.7317 40.9252C46.5535 40.1956 46.7071 38.9601 46.0888 38.0513ZM33.9495 20.5396C32.075 21.0129 30.2524 21.0129 28.3774 20.5396C27.5729 20.3362 27.806 18.9013 28.6706 19.1182C30.348 19.5393 31.9788 19.5393 33.6563 19.1182C34.5059 18.9049 34.767 20.333 33.9495 20.5396ZM27.2312 14.2942C27.2353 14.2962 27.2393 14.2982 27.2431 14.3001C27.9369 14.6449 28.5448 14.6637 29.2427 14.2071C30.1161 13.6354 30.2109 14.552 31.3576 14.552C31.9097 14.552 32.2143 14.3527 32.4368 14.2071C32.8085 13.9639 33.1012 13.964 33.4728 14.2071C34.1737 14.6658 34.767 14.6432 35.4809 14.2988C35.5864 14.679 35.3477 15.8125 33.8276 18.0756C33.0728 18.0628 31.9774 18.8041 28.8765 18.114C27.3597 15.8217 27.1252 14.6772 27.2312 14.2942ZM45.0788 40.1333L35.5404 46.1775C34.7171 46.6991 33.7667 46.975 32.792 46.975H25.1435C24.53 46.975 23.9273 46.8664 23.3523 46.6524L17.8615 44.6086V39.0883C17.8615 38.8051 17.632 38.5756 17.3489 38.5756C17.0658 38.5756 16.8364 38.8051 16.8364 39.0883V45.8486C16.8364 46.1036 16.6289 46.311 16.374 46.311H14.0208C13.7658 46.311 13.5584 46.1035 13.5584 45.8486V33.91C13.5584 33.6551 13.7658 33.4477 14.0208 33.4477H16.3739C16.6289 33.4477 16.8363 33.6551 16.8363 33.91V36.6919C16.8363 36.975 17.0658 37.2045 17.3488 37.2045C17.6319 37.2045 17.8614 36.975 17.8614 36.6919V35.2452C22.1018 35.2777 23.0552 37.5127 25.9604 37.9236C25.9647 37.9243 25.9691 37.9249 25.9735 37.9253L31.6444 38.5782C32.6374 38.7216 33.4015 39.5123 33.5121 40.5078L33.505 41.4829H28.2164C27.9333 41.4829 27.7038 41.7124 27.7038 41.9955C27.7038 42.2787 27.9333 42.5082 28.2164 42.5082H34.0139C34.0786 42.5082 34.1534 42.4938 34.2185 42.4654C34.229 42.4608 43.5334 38.3642 43.5442 38.3594C44.2149 38.0614 44.8264 38.0188 45.241 38.6281C45.5634 39.1017 45.4921 39.7419 45.0788 40.1333Z" fill="white"/>
<path d="M31.2986 36.2572C31.5817 36.2572 31.8112 36.0278 31.8112 35.7446V34.8949C33.2503 34.6614 34.0899 33.4966 34.2726 32.41C34.5008 31.0526 33.7898 29.8721 32.4613 29.4025C32.2265 29.3195 32.0105 29.2401 31.8112 29.1635V25.8951C32.4176 25.9957 32.7817 26.3095 32.8082 26.333C33.0164 26.5223 33.3387 26.5083 33.5297 26.3012C33.7217 26.0931 33.7085 25.7688 33.5005 25.5768C33.4643 25.5435 32.8365 24.9782 31.8112 24.86V24.131C31.8112 23.8479 31.5817 23.6184 31.2985 23.6184C31.0155 23.6184 30.786 23.8479 30.786 24.131V24.9014C30.6624 24.9251 30.5358 24.9552 30.4057 24.9943C29.5362 25.2562 28.8862 26.0018 28.7094 26.9401C28.5489 27.7915 28.8189 28.6103 29.4138 29.0769C29.7554 29.3448 30.1854 29.5901 30.786 29.8523V33.9061C30.1932 33.881 29.8283 33.7697 29.1917 33.3533C28.9548 33.1984 28.6371 33.2646 28.4821 33.5016C28.3272 33.7385 28.3935 34.0562 28.6305 34.2112C29.4673 34.7586 30.0266 34.9014 30.786 34.9309V35.7446C30.786 36.0278 31.0155 36.2572 31.2986 36.2572ZM30.0465 28.2703C29.7539 28.0407 29.6275 27.6038 29.7168 27.13C29.7997 26.6905 30.1018 26.1567 30.7014 25.9761C30.7299 25.9674 30.758 25.9601 30.786 25.9525V28.7214C30.479 28.5682 30.2384 28.4207 30.0465 28.2703ZM32.1196 30.3691C33.3952 30.8199 33.3162 31.9152 33.2615 32.2401C33.1485 32.9128 32.6547 33.631 31.8112 33.8472V30.258C31.911 30.2945 32.0129 30.3314 32.1196 30.3691Z" fill="white"/>
</g>
<defs>
<clipPath id="clip0_1349_4164">
<rect width="35" height="35" fill="white" transform="translate(12 13)"/>
</clipPath>
</defs>
</svg>
