<svg width="60" height="60" viewBox="0 0 60 60" fill="none" xmlns="http://www.w3.org/2000/svg">
<path d="M30 60C46.5685 60 60 46.5685 60 30C60 13.4315 46.5685 0 30 0C13.4315 0 0 13.4315 0 30C0 46.5685 13.4315 60 30 60Z" fill="white" fill-opacity="0.1"/>
<path d="M59.5 30C59.5 46.2924 46.2924 59.5 30 59.5C13.7076 59.5 0.5 46.2924 0.5 30C0.5 13.7076 13.7076 0.5 30 0.5C46.2924 0.5 59.5 13.7076 59.5 30Z" stroke="white" stroke-opacity="0.3"/>
<path d="M35.9062 23.8125C35.9062 27.3449 38.7801 30.2188 42.3125 30.2188C45.8449 30.2188 48.7188 27.3449 48.7188 23.8125C48.7188 20.2801 45.8449 17.4062 42.3125 17.4062C38.7801 17.4062 35.9062 20.2801 35.9062 23.8125ZM47.4375 23.8125C47.4375 26.6383 45.1383 28.9375 42.3125 28.9375C39.4867 28.9375 37.1875 26.6383 37.1875 23.8125C37.1875 20.9867 39.4867 18.6875 42.3125 18.6875C45.1383 18.6875 47.4375 20.9867 47.4375 23.8125Z" fill="white"/>
<path d="M16.6875 30.2188C20.2199 30.2188 23.0938 27.3449 23.0938 23.8125C23.0938 20.2801 20.2199 17.4062 16.6875 17.4062C13.1551 17.4062 10.2812 20.2801 10.2812 23.8125C10.2812 27.3449 13.1551 30.2188 16.6875 30.2188ZM16.6875 18.6875C19.5133 18.6875 21.8125 20.9867 21.8125 23.8125C21.8125 26.6383 19.5133 28.9375 16.6875 28.9375C13.8617 28.9375 11.5625 26.6383 11.5625 23.8125C11.5625 20.9867 13.8617 18.6875 16.6875 18.6875Z" fill="white"/>
<path d="M14.1248 23.8125V26.375C14.1248 26.7286 14.4112 27.0156 14.7654 27.0156H18.6092C18.9634 27.0156 19.2498 26.7286 19.2498 26.375V23.8125H19.8904C20.1627 23.8125 20.4048 23.6408 20.4945 23.3839C20.5842 23.127 20.5029 22.8413 20.2908 22.6715L17.0877 20.109C16.8539 19.922 16.5207 19.922 16.2869 20.109L13.0838 22.6715C12.8717 22.8413 12.7897 23.127 12.8801 23.3839C12.9704 23.6408 13.2119 23.8125 13.4842 23.8125H14.1248ZM17.9685 25.7344H15.406V23.8125H17.9685V25.7344ZM16.6873 21.43L18.064 22.5312H15.3106L16.6873 21.43Z" fill="white"/>
<path d="M29.5 19.9688C29.1464 19.9688 28.8594 19.6811 28.8594 19.3281H27.5781C27.5781 20.1622 28.1156 20.8669 28.8594 21.1321V21.8906H30.1406V21.1321C30.8844 20.8669 31.4219 20.1622 31.4219 19.3281C31.4219 18.2685 30.5596 17.4062 29.5 17.4062C29.1464 17.4062 28.8594 17.1186 28.8594 16.7656C28.8594 16.4126 29.1464 16.125 29.5 16.125C29.8536 16.125 30.1406 16.4126 30.1406 16.7656H31.4219C31.4219 15.9315 30.8844 15.2268 30.1406 14.9616V14.2031H28.8594V14.9616C28.1156 15.2268 27.5781 15.9315 27.5781 16.7656C27.5781 17.8252 28.4404 18.6875 29.5 18.6875C29.8536 18.6875 30.1406 18.9751 30.1406 19.3281C30.1406 19.6811 29.8536 19.9688 29.5 19.9688Z" fill="white"/>
<path d="M29.5 23.8125C32.6794 23.8125 35.2656 21.2257 35.2656 18.0469C35.2656 14.8681 32.6794 12.2812 29.5 12.2812C26.3206 12.2812 23.7344 14.8681 23.7344 18.0469C23.7344 21.2257 26.3206 23.8125 29.5 23.8125ZM29.5 13.5625C31.9722 13.5625 33.9844 15.5741 33.9844 18.0469C33.9844 20.5197 31.9722 22.5312 29.5 22.5312C27.0278 22.5312 25.0156 20.5197 25.0156 18.0469C25.0156 15.5741 27.0278 13.5625 29.5 13.5625Z" fill="white"/>
<path d="M40.3906 20.6094V21.8906H39.1094C38.7551 21.8906 38.4688 22.1776 38.4688 22.5312V25.0938C38.4688 25.4474 38.7551 25.7344 39.1094 25.7344H40.3906V27.0156C40.3906 27.3692 40.677 27.6562 41.0312 27.6562H43.5938C43.948 27.6562 44.2344 27.3692 44.2344 27.0156V25.7344H45.5156C45.8699 25.7344 46.1562 25.4474 46.1562 25.0938V22.5312C46.1562 22.1776 45.8699 21.8906 45.5156 21.8906H44.2344V20.6094C44.2344 20.2558 43.948 19.9688 43.5938 19.9688H41.0312C40.677 19.9688 40.3906 20.2558 40.3906 20.6094ZM41.6719 22.5312V21.25H42.9531V22.5312C42.9531 22.8849 43.2395 23.1719 43.5938 23.1719H44.875V24.4531H43.5938C43.2395 24.4531 42.9531 24.7401 42.9531 25.0938V26.375H41.6719V25.0938C41.6719 24.7401 41.3855 24.4531 41.0312 24.4531H39.75V23.1719H41.0312C41.3855 23.1719 41.6719 22.8849 41.6719 22.5312Z" fill="white"/>
<path d="M48.6869 38.7743C48.5941 38.2804 48.3128 37.855 47.8951 37.5763C47.1168 37.0574 46.0706 37.2028 45.4633 37.9114L45.273 38.133L45.3166 37.8704C45.3948 37.3995 45.2628 36.921 44.9547 36.5565C44.6465 36.1932 44.1955 35.9844 43.7183 35.9844C42.9738 35.9844 42.3275 36.4892 42.1462 37.2125L41.708 38.9639L40.0648 42.2503L39.0167 42.6001L39.3056 42.1004C39.5926 41.5258 39.5625 40.8563 39.2243 40.3099C38.8867 39.7634 38.3018 39.4373 37.6592 39.4373C37.0628 39.4373 36.5016 39.7282 36.1563 40.2144C33.9359 43.3522 33.8353 43.4944 33.836 43.4944C33.836 43.4944 33.836 43.4944 33.836 43.4938C32.4753 45.4086 32.5752 47.6072 32.672 49.7328C32.6867 50.0685 32.7027 50.4036 32.7117 50.7367L33.9929 50.7015C33.9833 50.3613 33.9679 50.0185 33.9526 49.6745C33.8616 47.6771 33.7764 45.7911 34.8828 44.2337L37.2025 40.9543C37.3075 40.8064 37.4786 40.718 37.6599 40.718C37.9411 40.718 38.0865 40.9037 38.1358 40.9832C38.1845 41.0633 38.2858 41.2759 38.1781 41.4931L36.8053 43.8673C36.6368 44.1594 36.5471 44.4919 36.5471 44.8295V45.5937H37.8283V44.8295C37.8283 44.7174 37.8585 44.6059 37.9148 44.5092L38.0506 44.2734L40.9437 43.308L40.9642 43.3183L40.9745 43.2977L42.7202 42.7148C43.0245 42.6007 43.2954 42.4105 43.5043 42.1664L46.4358 38.7467C46.6235 38.5283 46.9451 38.4841 47.1847 38.643C47.3134 38.7288 47.3999 38.8595 47.4281 39.0113C47.4569 39.1632 47.4236 39.3163 47.3346 39.4431L43.6484 44.7097C43.6196 44.7507 43.585 44.7891 43.5466 44.8231L41.0091 47.0435C40.8393 47.1915 40.6433 47.3446 40.437 47.5054C39.4555 48.2728 38.2332 49.228 38.3364 50.6579L39.6138 50.5656C39.56 49.8174 40.4453 49.1249 41.2269 48.5144C41.4524 48.3382 41.667 48.1697 41.8528 48.007L44.3916 45.7859C44.5094 45.6828 44.6132 45.5668 44.699 45.4426L48.3846 40.1779C48.6722 39.766 48.7798 39.2676 48.6869 38.7743ZM42.5305 41.3336C42.462 41.4143 42.3717 41.4771 42.2929 41.5072L41.7848 41.677L42.8861 39.4745C42.9066 39.4329 42.9232 39.3887 42.9341 39.3432L43.389 37.5238C43.4268 37.372 43.5626 37.2656 43.7183 37.2656C43.8553 37.2656 43.9393 37.3406 43.9771 37.3854C44.0149 37.4303 44.0751 37.5257 44.0527 37.6609L43.6606 40.0145L42.5305 41.3336Z" fill="white"/>
<path d="M14.3008 45.4413C14.3879 45.5668 14.4917 45.6828 14.6102 45.7872L17.1477 48.0076C17.3335 48.1703 17.5481 48.3388 17.7736 48.515C18.5552 49.1255 19.4405 49.8174 19.3867 50.5663L20.6641 50.6585C20.7672 49.2293 19.5449 48.2735 18.5635 47.506C18.3578 47.3459 18.1612 47.1921 17.9914 47.0441L15.4552 44.825C15.4154 44.7898 15.3809 44.7513 15.3514 44.709L11.6659 39.4438C11.5768 39.3169 11.5442 39.1638 11.5723 39.0126C11.6005 38.8608 11.687 38.7301 11.8158 38.6443C12.056 38.4847 12.3776 38.5296 12.5647 38.7474L15.4949 42.1664C15.7044 42.4124 15.976 42.6027 16.3021 42.7244L18.026 43.2997L18.0362 43.3195L18.0561 43.3093L20.9492 44.2747L21.0856 44.5105C21.142 44.6078 21.1721 44.7187 21.1721 44.8308V45.5938H22.4534V44.8295C22.4534 44.4925 22.3637 44.16 22.1958 43.8679L20.8415 41.5283C20.716 41.2766 20.8172 41.0639 20.8659 40.9838C20.9152 40.9037 21.0606 40.7186 21.3419 40.7186C21.5232 40.7186 21.6942 40.807 21.7986 40.955L24.1203 44.2363C25.226 45.7917 25.1401 47.6783 25.0492 49.6752C25.0338 50.0192 25.0178 50.3619 25.0088 50.7021L26.2901 50.7373C26.299 50.4042 26.3144 50.0698 26.3298 49.7335C26.4259 47.6079 26.5264 45.4093 25.176 43.5098C25.1702 43.5015 25.1702 43.5015 22.8441 40.2144C22.4995 39.7282 21.9383 39.4373 21.3419 39.4373C20.6993 39.4373 20.1144 39.7634 19.7768 40.3099C19.4386 40.8563 19.4085 41.5258 19.7134 42.135L19.9825 42.6001L18.9357 42.251L17.2925 38.9646L16.8543 37.2125C16.673 36.4892 16.0266 35.9844 15.2822 35.9844C14.8049 35.9844 14.3546 36.1932 14.0458 36.5571C13.7377 36.9216 13.605 37.4002 13.6838 37.8717L13.7274 38.1337L13.5371 37.912C12.9298 37.2035 11.8843 37.0581 11.1053 37.577C10.6876 37.8556 10.4058 38.281 10.3135 38.7749C10.2213 39.2689 10.3282 39.7666 10.6165 40.1779L14.3008 45.4413ZM14.9472 37.6609C14.9247 37.5257 14.9856 37.4303 15.0227 37.3854C15.0612 37.3406 15.1451 37.2656 15.2822 37.2656C15.4379 37.2656 15.5737 37.372 15.6121 37.5225L16.067 39.3425C16.0785 39.388 16.0945 39.4322 16.115 39.4739L17.2162 41.677L16.73 41.5149C16.6294 41.4771 16.5391 41.4143 16.4693 41.3323L15.3399 40.0145L14.9472 37.6609Z" fill="white"/>
<path d="M25.0156 41.1094H33.9844C34.3386 41.1094 34.625 40.8224 34.625 40.4688V35.9844C34.625 34.1592 33.527 32.5878 31.9587 31.8889C32.8043 31.1829 33.3438 30.1227 33.3438 28.9375C33.3438 26.8177 31.6198 25.0938 29.5 25.0938C27.3802 25.0938 25.6562 26.8177 25.6562 28.9375C25.6562 30.1227 26.1957 31.1829 27.0413 31.8889C25.473 32.5878 24.375 34.1592 24.375 35.9844V40.4688C24.375 40.8224 24.6614 41.1094 25.0156 41.1094ZM29.5 33.8652L30.0791 35.3143L29.5 36.4738L28.9209 35.3143L29.5 33.8652ZM29.5 31.5C28.1457 31.5 27.0451 30.441 26.9548 29.1092C27.7095 28.5858 28.5794 28.2969 29.5 28.2969C30.4206 28.2969 31.2905 28.5858 32.0452 29.1092C31.9549 30.441 30.8543 31.5 29.5 31.5ZM29.5 26.375C30.327 26.375 31.0561 26.7754 31.525 27.3853C30.8837 27.1437 30.2028 27.0156 29.5 27.0156C28.7972 27.0156 28.1163 27.1437 27.475 27.3853C27.9439 26.7754 28.673 26.375 29.5 26.375ZM25.6562 35.9844C25.6562 34.3277 26.926 32.976 28.541 32.8133L27.6243 35.1054C27.557 35.2758 27.564 35.4661 27.646 35.6301L28.9273 38.1926C29.0355 38.4098 29.2572 38.5469 29.5 38.5469C29.7428 38.5469 29.9645 38.4098 30.0734 38.1926L31.3546 35.6301C31.4366 35.4667 31.4443 35.2758 31.3764 35.1054L30.4597 32.8133C32.074 32.976 33.3438 34.3277 33.3438 35.9844V39.8281H25.6562V35.9844Z" fill="white"/>
</svg>
