<svg width="60" height="60" viewBox="0 0 60 60" fill="none" xmlns="http://www.w3.org/2000/svg">
<path d="M30 60C46.5685 60 60 46.5685 60 30C60 13.4315 46.5685 0 30 0C13.4315 0 0 13.4315 0 30C0 46.5685 13.4315 60 30 60Z" fill="white" fill-opacity="0.1"/>
<path d="M59.5 30C59.5 46.2924 46.2924 59.5 30 59.5C13.7076 59.5 0.5 46.2924 0.5 30C0.5 13.7076 13.7076 0.5 30 0.5C46.2924 0.5 59.5 13.7076 59.5 30Z" stroke="black" stroke-opacity="0.3"/>
<g clip-path="url(#clip0_1645_28848)">
<path d="M36.2714 30.8109C36.5869 30.8109 36.8426 30.5551 36.8426 30.2396V26.1139C36.8426 25.8758 36.6949 25.6626 36.472 25.579L29.7007 23.0398C29.5713 22.9913 29.4289 22.9913 29.2994 23.0398L22.5281 25.579C22.3052 25.6626 22.1575 25.8758 22.1575 26.1139V27.9481C22.1575 28.2636 22.4132 28.5194 22.7288 28.5194C23.0443 28.5194 23.3 28.2636 23.3 27.9481V26.9383L28.9288 29.049V36.6006L23.3 34.4899V30.6205C23.3 30.305 23.0443 30.0492 22.7288 30.0492C22.4132 30.0492 22.1575 30.305 22.1575 30.6205V34.8858C22.1575 35.1239 22.3052 35.3371 22.5281 35.4207L29.2994 37.9599C29.2995 37.9594 29.2997 37.9588 29.2997 37.9583C29.3641 37.9824 29.4317 37.9962 29.5001 37.9962C29.5677 37.9962 29.6356 37.9843 29.7007 37.9598L36.472 35.4206C36.6949 35.337 36.8426 35.1239 36.8426 34.8858V32.9024C36.8426 32.5869 36.5869 32.3311 36.2714 32.3311C35.9558 32.3311 35.7001 32.5869 35.7001 32.9024V34.4898L30.0713 36.6006V29.049L35.7001 26.9383V30.2396C35.7001 30.5552 35.9558 30.8109 36.2714 30.8109V30.8109ZM29.5001 28.043L24.3559 26.114L29.5001 24.1848L34.6443 26.114L29.5001 28.043Z" fill="#FFA300"/>
<path d="M28.9287 16.7022V20.8048C28.9287 21.1203 29.1845 21.3761 29.5 21.3761C29.8156 21.3761 30.0713 21.1203 30.0713 20.8048V16.7022C31.3864 16.4365 32.3797 15.2719 32.3797 13.8797C32.3797 12.2918 31.0879 11 29.5 11C27.9122 11 26.6204 12.2918 26.6204 13.8797C26.6204 15.2719 27.6136 16.4365 28.9287 16.7022ZM29.5 12.1426C30.4578 12.1426 31.2371 12.9218 31.2371 13.8797C31.2371 14.8375 30.4578 15.6168 29.5 15.6168C28.5423 15.6168 27.7629 14.8375 27.7629 13.8797C27.7629 12.9218 28.5423 12.1426 29.5 12.1426Z" fill="#FFA300"/>
<path d="M40.4905 37.5336C39.6052 37.5336 38.7869 37.8259 38.127 38.319L36.7595 36.9515C36.5363 36.7284 36.1746 36.7284 35.9515 36.9515C35.7284 37.1746 35.7284 37.5364 35.9515 37.7594L37.3191 39.1269C36.826 39.7869 36.5337 40.6052 36.5337 41.4904C36.5337 43.6723 38.3088 45.4473 40.4906 45.4473C42.6724 45.4473 44.4475 43.6723 44.4475 41.4904C44.4475 39.3086 42.6724 37.5336 40.4905 37.5336V37.5336ZM40.4905 44.3048C38.9387 44.3048 37.6762 43.0423 37.6762 41.4905C37.6762 39.9387 38.9387 38.6762 40.4905 38.6762C42.0424 38.6762 43.3048 39.9387 43.3048 41.4905C43.3048 43.0423 42.0424 44.3048 40.4905 44.3048Z" fill="#FFA300"/>
<path d="M18.5093 23.4665C19.3947 23.4665 20.2129 23.1742 20.8729 22.6811L22.2404 24.0486C22.352 24.1601 22.4982 24.2159 22.6444 24.2159C22.7906 24.2159 22.9368 24.1602 23.0484 24.0486C23.2715 23.8255 23.2715 23.4637 23.0484 23.2407L21.6809 21.8732C22.174 21.2132 22.4663 20.3949 22.4663 19.5096C22.4663 17.3278 20.6912 15.5527 18.5094 15.5527C16.3276 15.5527 14.5525 17.3278 14.5525 19.5096C14.5525 21.6915 16.3274 23.4665 18.5093 23.4665ZM18.5093 16.6952C20.0612 16.6952 21.3236 17.9578 21.3236 19.5096C21.3236 21.0613 20.0612 22.3239 18.5093 22.3239C16.9575 22.3239 15.695 21.0613 15.695 19.5096C15.695 17.9578 16.9575 16.6952 18.5093 16.6952Z" fill="#FFA300"/>
<path d="M30.0713 44.2979V40.1953C30.0713 39.8798 29.8156 39.624 29.5 39.624C29.1845 39.624 28.9287 39.8798 28.9287 40.1953V44.2979C27.6136 44.5637 26.6204 45.7282 26.6204 47.1205C26.6204 48.7084 27.9122 50.0002 29.5 50.0002C31.0879 50.0002 32.3797 48.7084 32.3797 47.1205C32.3797 45.7282 31.3864 44.5637 30.0713 44.2979ZM29.5 48.8576C28.5423 48.8576 27.7629 48.0783 27.7629 47.1205C27.7629 46.1626 28.5423 45.3834 29.5 45.3834C30.4578 45.3834 31.2371 46.1626 31.2371 47.1205C31.2371 48.0783 30.4578 48.8576 29.5 48.8576Z" fill="#FFA300"/>
<path d="M46.1202 27.6201C44.728 27.6201 43.5634 28.6134 43.2977 29.9285H39.1951C38.8795 29.9285 38.6238 30.1843 38.6238 30.4998C38.6238 30.8153 38.8795 31.0711 39.1951 31.0711H43.2977C43.5634 32.3862 44.728 33.3795 46.1202 33.3795C47.7081 33.3795 48.9999 32.0877 48.9999 30.4998C48.9999 28.9119 47.7081 27.6201 46.1202 27.6201ZM46.1202 32.2369C45.1624 32.2369 44.3831 31.4577 44.3831 30.4998C44.3831 29.5419 45.1624 28.7627 46.1202 28.7627C47.0781 28.7627 47.8573 29.5419 47.8573 30.4998C47.8573 31.4577 47.0781 32.2369 46.1202 32.2369Z" fill="#FFA300"/>
<path d="M15.7022 31.0711H19.8048C20.1204 31.0711 20.3761 30.8153 20.3761 30.4998C20.3761 30.1843 20.1204 29.9285 19.8048 29.9285H15.7022C15.4365 28.6134 14.2719 27.6201 12.8797 27.6201C11.2918 27.6201 10 28.9119 10 30.4998C10 32.0877 11.2918 33.3795 12.8797 33.3795C14.2719 33.3795 15.4365 32.3862 15.7022 31.0711ZM12.8797 32.2369C11.9218 32.2369 11.1426 31.4577 11.1426 30.4998C11.1426 29.5419 11.9218 28.7627 12.8797 28.7627C13.8375 28.7627 14.6167 29.5419 14.6167 30.4998C14.6167 31.4577 13.8375 32.2369 12.8797 32.2369V32.2369Z" fill="#FFA300"/>
<path d="M36.3555 24.2155C36.5017 24.2155 36.6479 24.1597 36.7595 24.0482L38.1271 22.6806C38.787 23.1738 39.6053 23.466 40.4906 23.466C42.6725 23.466 44.4475 21.691 44.4475 19.5091C44.4475 17.3273 42.6724 15.5522 40.4906 15.5522C38.3088 15.5522 36.5337 17.3273 36.5337 19.5091C36.5337 20.3945 36.826 21.2127 37.3191 21.8727L35.9515 23.2402C35.7284 23.4633 35.7284 23.825 35.9515 24.0481C36.0631 24.1597 36.2094 24.2155 36.3555 24.2155V24.2155ZM40.4906 16.6948C42.0424 16.6948 43.3049 17.9574 43.3049 19.5091C43.3049 21.0609 42.0424 22.3235 40.4906 22.3235C38.9387 22.3235 37.6763 21.0609 37.6763 19.5091C37.6763 17.9574 38.9387 16.6948 40.4906 16.6948Z" fill="#FFA300"/>
<path d="M22.2404 36.9515L20.8729 38.319C20.213 37.8259 19.3947 37.5336 18.5094 37.5336C16.3275 37.5336 14.5525 39.3086 14.5525 41.4905C14.5525 43.6724 16.3276 45.4474 18.5094 45.4474C20.6912 45.4474 22.4663 43.6724 22.4663 41.4905C22.4663 40.6052 22.174 39.7869 21.6809 39.127L23.0484 37.7595C23.2715 37.5363 23.2715 37.1746 23.0484 36.9516C22.8253 36.7284 22.4636 36.7284 22.2404 36.9515V36.9515ZM18.5094 44.3048C16.9575 44.3048 15.6951 43.0423 15.6951 41.4905C15.6951 39.9387 16.9575 38.6762 18.5094 38.6762C20.0612 38.6762 21.3237 39.9387 21.3237 41.4905C21.3237 43.0423 20.0612 44.3048 18.5094 44.3048Z" fill="#FFA300"/>
</g>
<defs>
<clipPath id="clip0_1645_28848">
<rect width="39" height="39" fill="white" transform="translate(10 11)"/>
</clipPath>
</defs>
</svg>
