<svg width="120" height="117" viewBox="0 0 120 117" fill="none" xmlns="http://www.w3.org/2000/svg">
<rect x="0.5" y="0.5" width="119" height="115.757" rx="19.5" stroke="#FF0000" stroke-opacity="0.4" stroke-dasharray="5 5"/>
<path d="M60 25.2944C60.7137 25.2944 61.292 24.7161 61.292 24.0024V15.292C61.292 14.5783 60.7137 14 60 14C59.2863 14 58.708 14.5783 58.708 15.292V24.0024C58.708 24.7161 59.2863 25.2944 60 25.2944Z" fill="#AF0000"/>
<path d="M35.8946 34.5227C36.3994 35.0271 37.2171 35.0271 37.7219 34.5227C38.2264 34.0179 38.2264 33.2 37.7219 32.6954L31.5626 26.536C31.058 26.0318 30.2401 26.0314 29.7354 26.536C29.2308 27.0408 29.2308 27.8587 29.7354 28.3633L35.8946 34.5227Z" fill="#AF0000"/>
<path d="M27.2018 55.5083H18.4912C17.7775 55.5083 17.1992 56.0866 17.1992 56.8003C17.1992 57.514 17.7775 58.0923 18.4912 58.0923H27.2016C27.9153 58.0923 28.4936 57.514 28.4936 56.8003C28.4936 56.0866 27.9153 55.5083 27.2018 55.5083Z" fill="#AF0000"/>
<path d="M35.8946 79.0784L29.7354 85.2376C29.2308 85.7424 29.2308 86.5603 29.7354 87.0649C30.2401 87.5693 31.0579 87.5693 31.5626 87.0649L37.7219 80.9056C38.2264 80.4009 38.2264 79.5829 37.7219 79.0784C37.2173 78.5741 36.3994 78.5741 35.8946 79.0784Z" fill="#AF0000"/>
<path d="M84.1051 79.0785C83.6003 78.5741 82.7824 78.5741 82.2778 79.0785C81.7733 79.5832 81.7733 80.4012 82.2778 80.9057L88.4371 87.065C88.9418 87.5694 89.7596 87.5694 90.2643 87.065C90.7689 86.5602 90.7689 85.7423 90.2643 85.2378L84.1051 79.0785Z" fill="#AF0000"/>
<path d="M101.508 55.5083H92.7979C92.0842 55.5083 91.5059 56.0866 91.5059 56.8003C91.5059 57.514 92.0842 58.0923 92.7979 58.0923H101.508C102.222 58.0923 102.8 57.514 102.8 56.8003C102.8 56.0866 102.222 55.5083 101.508 55.5083Z" fill="#AF0000"/>
<path d="M88.4371 26.536L82.2778 32.6954C81.7733 33.2002 81.7733 34.0181 82.2778 34.5227C82.7826 35.0271 83.6003 35.0271 84.1051 34.5227L90.2643 28.3633C90.7689 27.8585 90.7689 27.0406 90.2643 26.536C89.7596 26.0316 88.9417 26.0316 88.4371 26.536Z" fill="#AF0000"/>
<path d="M85.5231 54.1887C85.5231 39.9126 74.0733 28.2981 59.9996 28.2981C55.0696 28.2981 50.2847 29.7267 46.1624 32.4294C42.1516 35.0591 38.9543 38.7585 36.9162 43.1278C36.6146 43.7745 36.8944 44.5433 37.5409 44.8449C38.1881 45.1469 38.9564 44.8668 39.2581 44.2203C43.0374 36.1177 51.179 30.8821 59.9996 30.8821C72.6485 30.8821 82.9391 41.3374 82.9391 54.1887C82.9391 60.2928 80.6324 66.0638 76.4443 70.4382C74.0303 72.9593 71.9755 75.3683 71.4468 78.7437H48.8902C48.2241 75.2397 45.8339 72.7812 43.686 70.574C39.4133 66.1828 37.0601 60.3637 37.0601 54.1887C37.0601 52.664 37.206 51.1391 37.4935 49.656C37.6294 48.9556 37.1717 48.2775 36.4711 48.1416C35.7707 48.0067 35.0926 48.4636 34.9567 49.1642C34.6377 50.8088 34.4761 52.4993 34.4761 54.1887C34.4761 61.0407 37.0892 67.4998 41.8341 72.376C44.5592 75.1764 46.4883 77.4118 46.4883 80.6881C46.4883 80.6995 46.4885 80.7112 46.4888 80.7226L46.5629 88.3046C46.5629 90.7644 47.8751 92.9234 49.836 94.119V95.5398C49.836 99.102 52.7339 102 56.296 102H64.2203C67.7825 102 70.6804 99.102 70.6804 95.5398V94.119C72.6413 92.9234 73.9534 90.7644 73.9534 88.3046C73.9534 88.3046 73.9443 79.859 73.9271 79.7748C74.1722 76.7804 75.9872 74.652 78.3108 72.2251C82.9615 67.3674 85.5231 60.9618 85.5231 54.1887ZM68.0962 95.5398C68.0962 97.677 66.3573 99.4159 64.2201 99.4159H56.2958C54.1587 99.4159 52.4198 97.677 52.4198 95.5398V95.0418C52.7297 95.0852 53.0457 95.1092 53.3673 95.1092H67.1487C67.4703 95.1092 67.7863 95.0851 68.0962 95.0418V95.5398ZM67.1487 92.5252H53.3673C51.04 92.5252 49.1467 90.6319 49.1467 88.3046V88.2185H62.2391C62.9528 88.2185 63.5311 87.6402 63.5311 86.9265C63.5311 86.2128 62.9528 85.6345 62.2391 85.6345H49.1467V81.3278H71.3293L71.3693 85.6345H68.2684C67.5547 85.6345 66.9764 86.2128 66.9764 86.9265C66.9764 87.6402 67.5547 88.2185 68.2684 88.2185H71.3693V88.3046C71.3693 90.6319 69.4759 92.5252 67.1487 92.5252Z" fill="#AF0000"/>
<path d="M68.3995 54.3598C67.962 54.9233 68.0641 55.735 68.6276 56.1725C69.1909 56.6103 70.0027 56.5083 70.4404 55.9445L72.9982 52.6505C73.6756 51.7783 73.9726 50.6946 73.8348 49.5988C73.6968 48.503 73.1405 47.5266 72.2682 46.8492C71.396 46.1719 70.3115 45.8732 69.2164 46.0129C68.1206 46.1507 67.1442 46.707 66.467 47.5793L58.1226 58.3261L53.3335 53.0273C51.8047 51.3363 49.185 51.2043 47.4942 52.7325C46.6749 53.4731 46.193 54.4883 46.1372 55.5913C46.0816 56.6942 46.4587 57.7528 47.1991 58.5722L55.2958 67.5301C56.9257 69.4206 60.1462 69.3047 61.6286 67.2935L66.7423 60.7077C67.1799 60.1442 67.0777 59.3324 66.5142 58.8949C65.9508 58.4573 65.1392 58.5591 64.7015 59.123L59.5877 65.7088C59.0327 66.4629 57.8214 66.5069 57.213 65.7975L49.1164 56.8396C48.5431 56.2053 48.5927 55.223 49.2272 54.6497C49.8611 54.0771 50.8436 54.126 51.4169 54.7605L57.2395 61.2026C57.747 61.791 58.7558 61.7573 59.2185 61.1285L68.5084 49.1643C69.0057 48.4956 70.0369 48.3659 70.6838 48.8906C71.3527 49.3881 71.4823 50.4185 70.9575 51.0662L68.3995 54.3598Z" fill="#AF0000"/>
</svg>
